<svg width="512" height="512" viewBox="0 0 512 512" fill="none" xmlns="http://www.w3.org/2000/svg">
<path d="M267.314 256L348.208 175.106C351.332 171.982 351.332 166.917 348.208 163.793C345.083 160.669 340.019 160.669 336.894 163.793L256 244.686L175.106 163.792C171.982 160.668 166.917 160.668 163.793 163.792C160.668 166.916 160.668 171.981 163.793 175.105L244.686 256L163.792 336.894C160.667 340.019 160.667 345.083 163.792 348.208C165.354 349.77 167.401 350.551 169.449 350.551C171.497 350.551 173.544 349.77 175.106 348.208L256 267.314L336.894 348.208C338.457 349.77 340.503 350.551 342.551 350.551C344.599 350.551 346.646 349.77 348.208 348.208C351.332 345.083 351.332 340.019 348.208 336.894L267.314 256Z" fill="white"/>
<path d="M256 59C282.602 59 308.399 64.207 332.677 74.475C356.133 84.396 377.203 98.603 395.3 116.7C413.398 134.798 427.604 155.867 437.526 179.324C447.794 203.601 453 229.398 453 256C453 282.602 447.794 308.399 437.525 332.677C427.603 356.133 413.397 377.203 395.299 395.3C377.202 413.398 356.132 427.604 332.676 437.526C308.399 447.794 282.602 453 256 453C229.398 453 203.601 447.794 179.324 437.525C155.867 427.603 134.798 413.397 116.7 395.299C98.603 377.202 84.396 356.132 74.475 332.676C64.207 308.399 59 282.602 59 256C59 229.398 64.207 203.601 74.475 179.324C84.396 155.867 98.603 134.798 116.7 116.7C134.798 98.603 155.867 84.396 179.324 74.475C203.601 64.207 229.398 59 256 59ZM256 43C138.363 43 43 138.363 43 256C43 373.637 138.363 469 256 469C373.637 469 469 373.637 469 256C469 138.363 373.637 43 256 43Z" fill="white"/>
</svg>
